<svg xmlns="http://www.w3.org/2000/svg" xmlns:xlink="http://www.w3.org/1999/xlink" width="163" zoomAndPan="magnify" viewBox="0 0 122.25 30.000001" height="40" preserveAspectRatio="xMidYMid meet" version="1.0"><defs><g/><clipPath id="18bed3fef2"><path d="M 106.050781 2.902344 L 114.761719 2.902344 L 114.761719 11.613281 L 106.050781 11.613281 Z M 106.050781 2.902344 " clip-rule="nonzero"/></clipPath><clipPath id="a87ea37a32"><path d="M 110.40625 2.902344 C 108.003906 2.902344 106.050781 4.851562 106.050781 7.257812 C 106.050781 9.664062 108.003906 11.613281 110.40625 11.613281 C 112.8125 11.613281 114.761719 9.664062 114.761719 7.257812 C 114.761719 4.851562 112.8125 2.902344 110.40625 2.902344 Z M 110.40625 2.902344 " clip-rule="nonzero"/></clipPath><clipPath id="4de8550428"><path d="M 108.308594 5.34375 L 112.664062 5.34375 L 112.664062 8.976562 L 108.308594 8.976562 Z M 108.308594 5.34375 " clip-rule="nonzero"/></clipPath></defs><g fill="#000000" fill-opacity="1"><g transform="translate(2.556954, 20.806485)"><g><path d="M 9.65625 -2.40625 L 4.578125 -2.40625 L 3.765625 0 L 0.3125 0 L 5.21875 -13.578125 L 9.046875 -13.578125 L 13.96875 0 L 10.46875 0 Z M 8.796875 -4.953125 L 7.125 -9.921875 L 5.453125 -4.953125 Z M 8.796875 -4.953125 "/></g></g></g><g fill="#000000" fill-opacity="1"><g transform="translate(16.815845, 20.806485)"><g><path d="M 14.96875 -10.90625 C 16.3125 -10.90625 17.378906 -10.5 18.171875 -9.6875 C 18.960938 -8.875 19.359375 -7.75 19.359375 -6.3125 L 19.359375 0 L 16.078125 0 L 16.078125 -5.859375 C 16.078125 -6.554688 15.890625 -7.09375 15.515625 -7.46875 C 15.148438 -7.851562 14.644531 -8.046875 14 -8.046875 C 13.351562 -8.046875 12.847656 -7.851562 12.484375 -7.46875 C 12.117188 -7.09375 11.9375 -6.554688 11.9375 -5.859375 L 11.9375 0 L 8.640625 0 L 8.640625 -5.859375 C 8.640625 -6.554688 8.457031 -7.09375 8.09375 -7.46875 C 7.726562 -7.851562 7.222656 -8.046875 6.578125 -8.046875 C 5.929688 -8.046875 5.421875 -7.851562 5.046875 -7.46875 C 4.679688 -7.09375 4.5 -6.554688 4.5 -5.859375 L 4.5 0 L 1.203125 0 L 1.203125 -10.796875 L 4.5 -10.796875 L 4.5 -9.4375 C 4.84375 -9.882812 5.285156 -10.238281 5.828125 -10.5 C 6.367188 -10.769531 6.976562 -10.90625 7.65625 -10.90625 C 8.46875 -10.90625 9.191406 -10.726562 9.828125 -10.375 C 10.472656 -10.03125 10.972656 -9.535156 11.328125 -8.890625 C 11.703125 -9.484375 12.210938 -9.96875 12.859375 -10.34375 C 13.503906 -10.71875 14.207031 -10.90625 14.96875 -10.90625 Z M 14.96875 -10.90625 "/></g></g></g><g fill="#000000" fill-opacity="1"><g transform="translate(37.304539, 20.806485)"><g><path d="M 11.375 -5.578125 C 11.375 -5.265625 11.351562 -4.941406 11.3125 -4.609375 L 3.828125 -4.609375 C 3.878906 -3.929688 4.09375 -3.414062 4.46875 -3.0625 C 4.851562 -2.707031 5.320312 -2.53125 5.875 -2.53125 C 6.707031 -2.53125 7.285156 -2.878906 7.609375 -3.578125 L 11.125 -3.578125 C 10.945312 -2.867188 10.617188 -2.226562 10.140625 -1.65625 C 9.671875 -1.09375 9.082031 -0.648438 8.375 -0.328125 C 7.664062 -0.00390625 6.875 0.15625 6 0.15625 C 4.9375 0.15625 3.992188 -0.0664062 3.171875 -0.515625 C 2.347656 -0.972656 1.703125 -1.617188 1.234375 -2.453125 C 0.773438 -3.296875 0.546875 -4.273438 0.546875 -5.390625 C 0.546875 -6.515625 0.773438 -7.492188 1.234375 -8.328125 C 1.691406 -9.171875 2.332031 -9.816406 3.15625 -10.265625 C 3.976562 -10.722656 4.925781 -10.953125 6 -10.953125 C 7.039062 -10.953125 7.96875 -10.734375 8.78125 -10.296875 C 9.59375 -9.859375 10.226562 -9.234375 10.6875 -8.421875 C 11.144531 -7.609375 11.375 -6.660156 11.375 -5.578125 Z M 7.984375 -6.4375 C 7.984375 -7.007812 7.789062 -7.460938 7.40625 -7.796875 C 7.019531 -8.128906 6.535156 -8.296875 5.953125 -8.296875 C 5.398438 -8.296875 4.929688 -8.132812 4.546875 -7.8125 C 4.171875 -7.488281 3.9375 -7.03125 3.84375 -6.4375 Z M 7.984375 -6.4375 "/></g></g></g><g fill="#000000" fill-opacity="1"><g transform="translate(49.222423, 20.806485)"><g><path d="M 7.78125 -10.90625 C 9.039062 -10.90625 10.046875 -10.492188 10.796875 -9.671875 C 11.554688 -8.859375 11.9375 -7.738281 11.9375 -6.3125 L 11.9375 0 L 8.640625 0 L 8.640625 -5.859375 C 8.640625 -6.578125 8.453125 -7.132812 8.078125 -7.53125 C 7.710938 -7.9375 7.210938 -8.140625 6.578125 -8.140625 C 5.941406 -8.140625 5.4375 -7.9375 5.0625 -7.53125 C 4.6875 -7.132812 4.5 -6.578125 4.5 -5.859375 L 4.5 0 L 1.203125 0 L 1.203125 -10.796875 L 4.5 -10.796875 L 4.5 -9.359375 C 4.84375 -9.835938 5.296875 -10.210938 5.859375 -10.484375 C 6.429688 -10.765625 7.070312 -10.90625 7.78125 -10.90625 Z M 7.78125 -10.90625 "/></g></g></g><g fill="#000000" fill-opacity="1"><g transform="translate(62.262442, 20.806485)"><g><path d="M 0.546875 -5.390625 C 0.546875 -6.515625 0.773438 -7.492188 1.234375 -8.328125 C 1.691406 -9.171875 2.328125 -9.816406 3.140625 -10.265625 C 3.960938 -10.722656 4.898438 -10.953125 5.953125 -10.953125 C 7.304688 -10.953125 8.4375 -10.597656 9.34375 -9.890625 C 10.257812 -9.179688 10.859375 -8.179688 11.140625 -6.890625 L 7.625 -6.890625 C 7.320312 -7.710938 6.75 -8.125 5.90625 -8.125 C 5.289062 -8.125 4.800781 -7.890625 4.4375 -7.421875 C 4.082031 -6.953125 3.90625 -6.273438 3.90625 -5.390625 C 3.90625 -4.515625 4.082031 -3.84375 4.4375 -3.375 C 4.800781 -2.90625 5.289062 -2.671875 5.90625 -2.671875 C 6.75 -2.671875 7.320312 -3.082031 7.625 -3.90625 L 11.140625 -3.90625 C 10.859375 -2.644531 10.257812 -1.648438 9.34375 -0.921875 C 8.425781 -0.203125 7.296875 0.15625 5.953125 0.15625 C 4.898438 0.15625 3.960938 -0.0664062 3.140625 -0.515625 C 2.328125 -0.972656 1.691406 -1.617188 1.234375 -2.453125 C 0.773438 -3.296875 0.546875 -4.273438 0.546875 -5.390625 Z M 0.546875 -5.390625 "/></g></g></g><g fill="#000000" fill-opacity="1"><g transform="translate(73.967499, 20.806485)"><g><path d="M 0.546875 -5.421875 C 0.546875 -6.523438 0.753906 -7.492188 1.171875 -8.328125 C 1.585938 -9.171875 2.15625 -9.816406 2.875 -10.265625 C 3.601562 -10.722656 4.410156 -10.953125 5.296875 -10.953125 C 6.054688 -10.953125 6.722656 -10.796875 7.296875 -10.484375 C 7.867188 -10.171875 8.3125 -9.765625 8.625 -9.265625 L 8.625 -10.796875 L 11.9375 -10.796875 L 11.9375 0 L 8.625 0 L 8.625 -1.53125 C 8.300781 -1.03125 7.851562 -0.625 7.28125 -0.3125 C 6.707031 0 6.039062 0.15625 5.28125 0.15625 C 4.40625 0.15625 3.601562 -0.0703125 2.875 -0.53125 C 2.15625 -0.988281 1.585938 -1.640625 1.171875 -2.484375 C 0.753906 -3.328125 0.546875 -4.304688 0.546875 -5.421875 Z M 8.625 -5.390625 C 8.625 -6.222656 8.394531 -6.875 7.9375 -7.34375 C 7.476562 -7.820312 6.921875 -8.0625 6.265625 -8.0625 C 5.609375 -8.0625 5.050781 -7.828125 4.59375 -7.359375 C 4.132812 -6.890625 3.90625 -6.242188 3.90625 -5.421875 C 3.90625 -4.585938 4.132812 -3.929688 4.59375 -3.453125 C 5.050781 -2.972656 5.609375 -2.734375 6.265625 -2.734375 C 6.921875 -2.734375 7.476562 -2.96875 7.9375 -3.4375 C 8.394531 -3.914062 8.625 -4.566406 8.625 -5.390625 Z M 8.625 -5.390625 "/></g></g></g><g fill="#000000" fill-opacity="1"><g transform="translate(87.104257, 20.806485)"><g><path d="M 5.59375 0.15625 C 4.644531 0.15625 3.800781 -0.00390625 3.0625 -0.328125 C 2.332031 -0.648438 1.753906 -1.09375 1.328125 -1.65625 C 0.910156 -2.21875 0.675781 -2.847656 0.625 -3.546875 L 3.890625 -3.546875 C 3.929688 -3.171875 4.101562 -2.863281 4.40625 -2.625 C 4.71875 -2.394531 5.097656 -2.28125 5.546875 -2.28125 C 5.960938 -2.28125 6.28125 -2.359375 6.5 -2.515625 C 6.726562 -2.679688 6.84375 -2.894531 6.84375 -3.15625 C 6.84375 -3.46875 6.679688 -3.695312 6.359375 -3.84375 C 6.035156 -3.988281 5.515625 -4.148438 4.796875 -4.328125 C 4.023438 -4.515625 3.378906 -4.707031 2.859375 -4.90625 C 2.347656 -5.101562 1.90625 -5.414062 1.53125 -5.84375 C 1.15625 -6.28125 0.96875 -6.867188 0.96875 -7.609375 C 0.96875 -8.222656 1.140625 -8.785156 1.484375 -9.296875 C 1.828125 -9.804688 2.328125 -10.207031 2.984375 -10.5 C 3.648438 -10.800781 4.441406 -10.953125 5.359375 -10.953125 C 6.710938 -10.953125 7.78125 -10.613281 8.5625 -9.9375 C 9.34375 -9.269531 9.789062 -8.378906 9.90625 -7.265625 L 6.84375 -7.265625 C 6.789062 -7.640625 6.625 -7.9375 6.34375 -8.15625 C 6.070312 -8.375 5.710938 -8.484375 5.265625 -8.484375 C 4.878906 -8.484375 4.582031 -8.410156 4.375 -8.265625 C 4.164062 -8.117188 4.0625 -7.914062 4.0625 -7.65625 C 4.0625 -7.351562 4.222656 -7.125 4.546875 -6.96875 C 4.878906 -6.8125 5.394531 -6.65625 6.09375 -6.5 C 6.894531 -6.289062 7.546875 -6.085938 8.046875 -5.890625 C 8.546875 -5.691406 8.984375 -5.367188 9.359375 -4.921875 C 9.742188 -4.472656 9.945312 -3.878906 9.96875 -3.140625 C 9.96875 -2.503906 9.785156 -1.9375 9.421875 -1.4375 C 9.066406 -0.945312 8.554688 -0.554688 7.890625 -0.265625 C 7.234375 0.015625 6.46875 0.15625 5.59375 0.15625 Z M 5.59375 0.15625 "/></g></g></g><g fill="#000000" fill-opacity="1"><g transform="translate(97.899997, 20.806485)"><g><path d="M 7.21875 -2.8125 L 7.21875 0 L 5.53125 0 C 4.332031 0 3.394531 -0.289062 2.71875 -0.875 C 2.050781 -1.46875 1.71875 -2.425781 1.71875 -3.75 L 1.71875 -8.046875 L 0.40625 -8.046875 L 0.40625 -10.796875 L 1.71875 -10.796875 L 1.71875 -13.421875 L 5.03125 -13.421875 L 5.03125 -10.796875 L 7.203125 -10.796875 L 7.203125 -8.046875 L 5.03125 -8.046875 L 5.03125 -3.71875 C 5.03125 -3.394531 5.109375 -3.160156 5.265625 -3.015625 C 5.421875 -2.878906 5.675781 -2.8125 6.03125 -2.8125 Z M 7.21875 -2.8125 "/></g></g></g><g clip-path="url(#18bed3fef2)"><g clip-path="url(#a87ea37a32)"><path fill="#000000" d="M 106.050781 2.902344 L 114.761719 2.902344 L 114.761719 11.613281 L 106.050781 11.613281 Z M 106.050781 2.902344 " fill-opacity="1" fill-rule="nonzero"/></g></g><g clip-path="url(#4de8550428)"><path fill="#ffffff" d="M 111.621094 6.957031 L 112.503906 9.164062 L 112.070312 9.164062 L 111.832031 8.5625 L 111.007812 8.5625 L 110.769531 9.164062 L 110.335938 9.164062 L 111.21875 6.957031 Z M 109.914062 5.347656 L 109.914062 5.75 L 111.117188 5.75 L 111.117188 6.152344 L 110.722656 6.152344 C 110.566406 6.625 110.324219 7.046875 109.996094 7.417969 C 110.140625 7.546875 110.296875 7.660156 110.464844 7.761719 L 110.316406 8.136719 C 110.097656 8.015625 109.898438 7.871094 109.714844 7.703125 C 109.351562 8.03125 108.933594 8.269531 108.46875 8.414062 L 108.359375 8.027344 C 108.761719 7.902344 109.117188 7.695312 109.429688 7.417969 C 109.199219 7.15625 109.011719 6.867188 108.863281 6.554688 L 109.3125 6.554688 C 109.425781 6.761719 109.558594 6.953125 109.714844 7.132812 C 109.964844 6.839844 110.160156 6.511719 110.296875 6.152344 L 108.308594 6.152344 L 108.308594 5.75 L 109.511719 5.75 L 109.511719 5.347656 Z M 111.417969 7.535156 L 111.167969 8.160156 L 111.667969 8.160156 Z M 111.417969 7.535156 " fill-opacity="1" fill-rule="nonzero"/></g></svg>